<?xml version="1.0" standalone="no"?>
<!DOCTYPE svg PUBLIC "-//W3C//DTD SVG 20010904//EN"
 "http://www.w3.org/TR/2001/REC-SVG-20010904/DTD/svg10.dtd">
<svg version="1.0" xmlns="http://www.w3.org/2000/svg"
 width="200.000000pt" height="200.000000pt" viewBox="0 0 200.000000 200.000000"
 preserveAspectRatio="xMidYMid meet">
<metadata>
Created by potrace 1.14, written by Peter Selinger 2001-2017
</metadata>
<g transform="translate(0.000000,200.000000) scale(0.100000,-0.100000)"
fill="#000000" stroke="none">
<path d="M829 1893 c-398 -229 -604 -351 -636 -377 -20 -16 -46 -52 -59 -80
l-24 -51 0 -446 c0 -430 1 -447 20 -472 19 -24 701 -424 741 -434 49 -13 49
-12 49 454 l0 435 -27 26 c-16 15 -155 99 -311 186 -155 87 -292 170 -303 185
-37 47 -2 121 59 121 14 0 167 -36 340 -81 208 -53 323 -78 341 -74 14 4 190
100 391 213 330 187 365 210 368 234 3 21 -2 30 -20 38 -34 15 -751 200 -774
200 -11 0 -80 -35 -155 -77z"/>
<path d="M1583 1503 c-34 -21 -60 -39 -57 -42 3 -4 44 -28 91 -56 95 -55 114
-75 94 -98 -6 -9 -139 -87 -294 -174 -155 -86 -294 -170 -309 -185 l-28 -26 0
-435 c0 -466 0 -467 49 -454 40 10 722 410 741 434 19 25 20 42 20 465 0 360
-3 444 -14 466 -10 18 -47 46 -108 79 -51 29 -100 54 -108 57 -8 3 -43 -11
-77 -31z"/>
</g>
</svg>
